<?xml version="1.0" standalone="no"?><!DOCTYPE svg PUBLIC "-//W3C//DTD SVG 1.1//EN"
        "http://www.w3.org/Graphics/SVG/1.1/DTD/svg11.dtd">
<svg t="1609633390745" class="icon" viewBox="0 0 1024 1024" version="1.1" xmlns="http://www.w3.org/2000/svg" p-id="2669"
     width="128" height="128">
    <defs>
        <style type="text/css"></style>
    </defs>
    <path d="M446.464 471.04c0 10.24 2.048 22.528 6.144 30.72 4.096 10.24 10.24 18.432 18.432 26.624 8.192 8.192 16.384 14.336 26.624 18.432 10.24 4.096 20.48 6.144 30.72 6.144 10.24 0 22.528-2.048 30.72-6.144 10.24-4.096 18.432-10.24 26.624-18.432 8.192-8.192 14.336-16.384 18.432-26.624 4.096-10.24 6.144-20.48 6.144-30.72 0-10.24-2.048-22.528-6.144-30.72-4.096-10.24-10.24-18.432-18.432-26.624-8.192-8.192-16.384-14.336-26.624-18.432-10.24-4.096-20.48-6.144-30.72-6.144-10.24 0-22.528 2.048-30.72 6.144-10.24 4.096-18.432 10.24-26.624 18.432-8.192 8.192-14.336 16.384-18.432 26.624C448.512 448.512 446.464 460.8 446.464 471.04L446.464 471.04zM446.464 471.04"
          p-id="2670" fill="#bfbfbf"></path>
    <path d="M524.288 270.336C327.68 270.336 223.232 471.04 223.232 471.04s137.216 202.752 309.248 202.752c172.032 0 305.152-202.752 305.152-202.752S718.848 270.336 524.288 270.336L524.288 270.336zM530.432 618.496c-81.92 0-147.456-65.536-147.456-147.456 0-81.92 65.536-147.456 147.456-147.456 81.92 0 147.456 65.536 147.456 147.456C677.888 552.96 610.304 618.496 530.432 618.496L530.432 618.496zM530.432 618.496"
          p-id="2671" fill="#bfbfbf"></path>
</svg>